<?xml version="1.0" ?><svg enable-background="new 0 0 500 500" id="Layer_1" version="1.1" viewBox="0 0 500 500" xml:space="preserve" xmlns="http://www.w3.org/2000/svg" xmlns:xlink="http://www.w3.org/1999/xlink"><g><g><polygon points="401.1,435.3 99.9,435.3 99.9,93.1 182.1,93.1 182.1,120.5 127.3,120.5 127.3,407.9 373.7,407.9 373.7,120.5     318.9,120.5 318.9,93.1 401.1,93.1   "/></g><g><path d="M332.6,175.2H168.4V93.1h43.4c5.7-15.9,20.9-27.4,38.7-27.4s33.1,11.4,38.7,27.4h43.4V175.2z M195.7,147.8h109.5v-27.4    h-41.1v-13.7c0-7.6-6.1-13.7-13.7-13.7c-7.6,0-13.7,6.1-13.7,13.7v13.7h-41.1V147.8z"/></g><g><path d="M223.1,271h-68.4v-68.4h68.4V271z M182.1,243.7h13.7V230h-13.7V243.7z"/></g><g><rect height="27.4" width="95.8" x="250.5" y="216.3"/></g><g><rect height="27.4" width="95.8" x="250.5" y="312.1"/></g><g><rect height="68.4" width="68.4" x="154.7" y="298.4"/></g></g></svg>