<?xml version="1.0" ?><!DOCTYPE svg  PUBLIC '-//W3C//DTD SVG 1.1//EN'  'http://www.w3.org/Graphics/SVG/1.1/DTD/svg11.dtd'><svg height="512px" style="enable-background:new 0 0 512 512;" version="1.1" viewBox="0 0 512 512" width="512px" xml:space="preserve" xmlns="http://www.w3.org/2000/svg" xmlns:xlink="http://www.w3.org/1999/xlink"><g id="_x31_5_x2C__report_x2C__medical_x2C__paper_x2C__checklist_x2C__document_x2C_"><g><path d="M174.671,72.939h-40.395c-14.698,0-28.086,6.021-37.772,15.708    c-9.69,9.726-15.708,23.077-15.708,37.813v306.055c0,14.697,6.019,28.088,15.708,37.774c9.686,9.687,23.075,15.709,37.772,15.709    h243.447c14.736,0,28.087-6.022,37.812-15.709c9.686-9.687,15.67-23.077,15.67-37.774V126.461c0-14.736-5.984-28.088-15.67-37.813    c-9.725-9.687-23.075-15.708-37.812-15.708h-40.356v34.633c0,2.545-2.06,4.602-4.601,4.602H179.272    c-2.544,0-4.601-2.057-4.601-4.602V72.939z M130.876,171.006c-2.544,0-4.601-2.057-4.601-4.6c0-2.506,2.057-4.602,4.601-4.602    h113.81c2.544,0,4.601,2.096,4.601,4.602c0,2.543-2.056,4.6-4.601,4.6H130.876z M130.876,199.73c-2.544,0-4.601-2.059-4.601-4.602    c0-2.506,2.057-4.601,4.601-4.601h113.81c2.544,0,4.601,2.095,4.601,4.601c0,2.543-2.056,4.602-4.601,4.602H130.876z     M130.876,228.454c-2.544,0-4.601-2.057-4.601-4.601c0-2.543,2.057-4.6,4.601-4.6h250.248c2.544,0,4.601,2.057,4.601,4.6    c0,2.544-2.057,4.601-4.601,4.601H130.876z M130.876,257.178c-2.544,0-4.601-2.057-4.601-4.6c0-2.545,2.057-4.602,4.601-4.602    h250.248c2.544,0,4.601,2.057,4.601,4.602c0,2.543-2.057,4.6-4.601,4.6H130.876z M183.873,68.228v0.149v34.597h144.293V68.377    v-0.149v-10.81h-40.731c-2.541,0-4.602-2.057-4.602-4.601c0-7.405-2.989-14.099-7.854-18.962    c-4.861-4.862-11.557-7.854-18.962-7.854s-14.136,3.029-18.962,7.854c-4.826,4.826-7.854,11.483-7.854,18.85v0.112    c0,2.544-2.095,4.601-4.601,4.601h-40.728V68.228z M130.876,310.325c-2.544,0-4.601-2.057-4.601-4.601    c0-2.506,2.057-4.6,4.601-4.6h134.642c2.544,0,4.601,2.094,4.601,4.6c0,2.544-2.057,4.601-4.601,4.601H130.876z M130.876,339.049    c-2.544,0-4.601-2.057-4.601-4.6c0-2.506,2.057-4.601,4.601-4.601h173.688c2.545,0,4.602,2.095,4.602,4.601    c0,2.543-2.057,4.6-4.602,4.6H130.876z M209.454,392.233c-2.541,0-4.601-2.093-4.601-4.599c0-2.545,2.06-4.602,4.601-4.602h171.67    c2.544,0,4.601,2.057,4.601,4.602c0,2.506-2.057,4.599-4.601,4.599H209.454z M130.876,420.92c-2.544,0-4.601-2.057-4.601-4.563    c0-2.542,2.057-4.601,4.601-4.601h250.248c2.544,0,4.601,2.059,4.601,4.601c0,2.506-2.057,4.563-4.601,4.563H130.876z     M261.517,68.452c-1.421-1.421-3.365-2.281-5.499-2.281c-2.13,0-4.075,0.86-5.496,2.281c-1.386,1.383-2.246,3.329-2.246,5.461    c0,2.169,0.86,4.113,2.246,5.497c1.383,1.383,3.327,2.244,5.496,2.244c2.134,0,4.078-0.861,5.461-2.244    c1.386-1.421,2.281-3.365,2.281-5.497S262.899,69.835,261.517,68.452z M256.018,56.969c4.64,0,8.903,1.908,11.932,4.975    l0.187,0.15c2.955,3.066,4.825,7.256,4.825,11.819c0,4.675-1.909,8.938-4.973,11.968c-3.067,3.066-7.296,4.975-11.971,4.975    s-8.9-1.871-11.967-4.975l-0.039-0.037c-3.064-3.067-4.935-7.293-4.935-11.931c0-4.677,1.906-8.901,4.935-11.97    C247.079,58.877,251.343,56.969,256.018,56.969z" style="fill-rule:evenodd;clip-rule:evenodd;"/></g></g><g id="Layer_1"/></svg>